<svg width="160" height="160" viewBox="0 0 160 160" fill="none" xmlns="http://www.w3.org/2000/svg">
<g clip-path="url(#clip0_14983_10369)">
<path d="M8.36011 81.6129C8.36011 62.4465 16.3809 19.0881 55.0305 10.2897C93.6801 1.49127 94.4001 29.2401 115.554 38.8449C136.707 48.4497 154.203 63.2241 150.92 87.5169C147.637 111.81 126.123 144.253 75.0897 142.755C24.0561 141.258 8.36011 101.989 8.36011 81.6129Z" fill="#FFF0E1"/>
<path d="M80.1583 78.0703V149.451H89.9935V78.2719L84.8095 78.4303L80.1583 78.0703Z" fill="#F08B00"/>
<path d="M80.1583 132.439C80.302 132.131 80.4481 131.825 80.5939 131.52C80.6988 131.3 80.8036 131.08 80.9071 130.861C80.9446 130.783 80.9826 130.705 81.0206 130.627C81.1727 130.316 81.3247 130.005 81.4399 129.694C81.5839 129.32 81.7279 128.917 81.8575 128.528C81.8963 128.412 81.9363 128.295 81.9764 128.179C82.0706 127.905 82.1656 127.63 82.2463 127.347C82.4021 126.815 82.5931 126.294 82.7875 125.764C82.8087 125.706 82.8299 125.648 82.8511 125.59L83.0671 124.985C83.1247 124.784 83.1967 124.582 83.2687 124.381C83.3839 124.035 83.5135 123.689 83.6575 123.373C83.8015 123.07 83.9311 122.768 84.0463 122.451C84.1615 122.134 84.2479 121.817 84.3343 121.501C84.3583 121.4 84.3807 121.299 84.4031 121.198C84.4479 120.997 84.4927 120.795 84.5503 120.593C84.5719 120.521 84.5935 120.446 84.6151 120.37C84.6367 120.295 84.6583 120.219 84.6799 120.147C84.7087 119.989 84.7519 119.845 84.8095 119.701C84.8383 119.6 84.8671 119.485 84.8671 119.384C84.8762 119.148 84.9138 118.906 84.9513 118.666C84.9732 118.525 84.9951 118.385 85.0111 118.246C85.0183 118.153 85.0291 118.059 85.0399 117.965C85.0507 117.872 85.0615 117.778 85.0687 117.685C85.0831 117.497 85.1119 117.325 85.1839 117.137C85.1839 116.906 85.2098 116.687 85.237 116.456C85.2385 116.443 85.24 116.43 85.2415 116.417C85.2703 116.173 85.3135 115.942 85.3711 115.697C85.3876 115.64 85.3852 115.577 85.3829 115.516C85.3811 115.47 85.3794 115.424 85.3855 115.381L85.4431 114.689C85.4575 114.56 85.4719 114.43 85.4719 114.301C85.4575 113.811 85.5295 113.365 85.6159 112.904C85.6674 112.595 85.7035 112.281 85.7395 111.968C85.764 111.756 85.7884 111.544 85.8175 111.334L85.7599 111.291C85.7887 110.931 85.8031 110.571 85.8175 110.211C85.8319 109.894 85.7311 109.649 85.5583 109.491C85.3567 109.318 85.2271 109.433 85.1839 109.793V109.923L85.0111 111.824L84.9535 112.443L84.8815 113.062L84.7519 114.286C84.7303 114.538 84.7123 114.79 84.6943 115.042C84.6763 115.294 84.6583 115.546 84.6367 115.798C84.6223 116.043 84.5935 116.302 84.5647 116.547C84.5431 116.669 84.5215 116.795 84.4999 116.921C84.4783 117.047 84.4567 117.173 84.4351 117.296C84.4159 117.382 84.4095 117.481 84.4031 117.581C84.3999 117.63 84.3967 117.68 84.3919 117.728C84.3662 118.011 84.329 118.282 84.2906 118.562C84.286 118.596 84.2814 118.63 84.2767 118.664C84.2335 118.966 84.1615 119.283 84.0751 119.585C84.0391 119.715 84.0031 119.841 83.9671 119.967C83.9311 120.093 83.8951 120.219 83.8591 120.349C83.7871 120.608 83.7295 120.867 83.6863 121.126C83.6431 121.342 83.5711 121.573 83.4991 121.789L83.3695 122.206C83.3479 122.278 83.3227 122.347 83.2975 122.415C83.2723 122.483 83.2471 122.552 83.2255 122.624L82.9375 123.459C82.7215 124.021 82.5199 124.568 82.3183 125.129L81.9295 126.209C81.7711 126.67 81.6127 127.131 81.4399 127.592C81.3535 127.822 81.2671 128.049 81.1807 128.276C81.0943 128.503 81.0079 128.729 80.9215 128.96C80.7023 129.532 80.4624 130.084 80.1583 130.616V132.439Z" fill="#D03C0B"/>
<path d="M89.9935 125.226C89.9796 125.267 89.9658 125.308 89.952 125.349C89.8798 125.563 89.8079 125.777 89.7199 125.979C89.4319 126.699 89.1007 127.376 88.7263 128.038L88.4383 128.528L88.1071 128.989C88.0783 129.025 88.0495 129.064 88.0207 129.104C87.9919 129.143 87.9631 129.183 87.9343 129.219L87.5887 129.651C87.5311 129.723 87.4735 129.795 87.4159 129.853C87.2575 130.011 87.0703 130.169 86.8831 130.285C86.6959 130.4 86.4943 130.457 86.3359 130.443C86.2495 130.429 86.1775 130.4 86.1055 130.342C86.0335 130.285 85.9759 130.213 85.9327 130.112C85.8319 129.925 85.8031 129.665 85.7887 129.392L85.7743 129.262V128.873C85.7855 128.801 85.7923 128.73 85.799 128.661C85.8096 128.552 85.8199 128.446 85.8463 128.341C85.8924 128.064 85.9753 127.788 86.0583 127.511C86.079 127.442 86.0997 127.373 86.1199 127.304C86.1775 127.131 86.2423 126.962 86.3071 126.793C86.3719 126.623 86.4367 126.454 86.4943 126.281C86.602 125.965 86.7191 125.645 86.8369 125.324C86.9711 124.958 87.106 124.59 87.2287 124.222C87.2791 124.093 87.3259 123.963 87.3727 123.833C87.4195 123.704 87.4663 123.574 87.5167 123.445C87.5671 123.315 87.6139 123.185 87.6607 123.056C87.7075 122.926 87.7543 122.797 87.8047 122.667L87.9055 122.393C87.9199 122.35 87.9343 122.303 87.9487 122.257C87.9631 122.21 87.9775 122.163 87.9919 122.12C88.0495 121.933 88.1071 121.745 88.1647 121.573C88.1915 121.492 88.2173 121.411 88.2432 121.329C88.3145 121.104 88.3864 120.877 88.4815 120.665C88.7119 120.118 88.8703 119.542 88.9567 118.966C88.996 118.789 89.0218 118.606 89.048 118.421C89.0603 118.334 89.0725 118.247 89.0863 118.16C89.1007 118.03 89.1295 117.886 89.1583 117.757C89.1684 117.666 89.1925 117.568 89.216 117.473C89.2261 117.433 89.2361 117.392 89.2447 117.353C89.2735 117.267 89.2735 117.166 89.2735 117.08C89.2638 116.847 89.2803 116.613 89.2965 116.385C89.3043 116.274 89.312 116.165 89.3167 116.057C89.3167 115.986 89.3147 115.915 89.3127 115.844C89.3055 115.584 89.2982 115.324 89.3887 115.064C89.3455 114.632 89.3887 114.214 89.4607 113.782C89.4691 113.732 89.4628 113.681 89.456 113.628C89.4513 113.59 89.4463 113.55 89.4463 113.509L89.4607 112.889C89.4607 112.851 89.4623 112.813 89.4639 112.774C89.4671 112.697 89.4703 112.621 89.4607 112.544C89.4041 112.133 89.4588 111.736 89.5154 111.326L89.5183 111.305C89.5562 111.002 89.5816 110.693 89.6069 110.385C89.62 110.225 89.6331 110.066 89.6479 109.909L89.6335 109.981C89.6335 109.822 89.6371 109.66 89.6407 109.498C89.6443 109.336 89.6479 109.174 89.6479 109.016C89.6479 108.728 89.5471 108.512 89.3599 108.382C89.1583 108.224 89.0287 108.339 88.9999 108.656C88.9905 108.684 88.9934 108.706 88.9965 108.73C88.9982 108.743 88.9999 108.756 88.9999 108.771C88.9567 109.333 88.9279 109.894 88.8991 110.456C88.8847 110.816 88.8631 111.179 88.8415 111.543C88.8199 111.907 88.7983 112.27 88.7839 112.63C88.7695 113.076 88.7695 113.523 88.7695 113.969C88.7551 114.415 88.7407 114.862 88.6831 115.309C88.6735 115.395 88.6767 115.481 88.6799 115.568C88.6815 115.611 88.6831 115.654 88.6831 115.697C88.6687 116.259 88.6543 116.821 88.5391 117.368C88.496 117.583 88.4529 117.813 88.4098 118.043L88.4095 118.045C88.3663 118.275 88.3375 118.505 88.3231 118.736C88.3123 118.887 88.2772 119.038 88.2421 119.189C88.2304 119.24 88.2187 119.29 88.2079 119.341C87.9487 120.349 87.6463 121.342 87.3007 122.307C87.1855 122.624 87.0703 122.941 86.9551 123.243C86.7982 123.654 86.6297 124.069 86.4597 124.487C86.3019 124.875 86.1428 125.267 85.9903 125.662C85.7599 126.267 85.5295 126.872 85.2703 127.491C85.1983 127.635 85.1551 127.822 85.1551 127.952C85.1695 128.081 85.1695 128.197 85.1407 128.312C85.1119 128.413 85.0831 128.528 85.0543 128.643C85.048 128.681 85.039 128.721 85.0296 128.763C85.0175 128.817 85.0048 128.874 84.9967 128.931C84.9823 129.032 84.9679 129.133 84.9679 129.233C84.9535 129.392 84.9823 129.593 85.0399 129.709C85.1417 129.887 85.176 130.054 85.2224 130.279C85.2285 130.308 85.2348 130.339 85.2415 130.371C85.2703 130.486 85.3279 130.63 85.4287 130.745C85.5151 130.861 85.6591 130.976 85.7887 131.048C85.9327 131.12 86.1199 131.163 86.2783 131.177C86.4655 131.206 86.6383 131.177 86.7823 131.134C86.9407 131.091 87.0703 131.033 87.1999 130.961C87.4591 130.817 87.6751 130.659 87.8623 130.457C87.8911 130.429 87.9163 130.396 87.9415 130.364C87.9667 130.331 87.9919 130.299 88.0207 130.27L88.1503 130.083L88.4239 129.723C88.4774 129.652 88.5253 129.575 88.5746 129.496C88.605 129.447 88.6358 129.398 88.6687 129.349L88.9135 128.974C88.9639 128.895 89.0107 128.812 89.0575 128.729C89.1043 128.647 89.1511 128.564 89.2015 128.485C89.3023 128.326 89.4031 128.168 89.4895 127.995C89.5471 127.88 89.6119 127.768 89.6767 127.657C89.7415 127.545 89.8063 127.433 89.8639 127.318C89.9023 127.241 89.9423 127.165 89.9823 127.088C89.986 127.081 89.9898 127.073 89.9935 127.066V125.226Z" fill="#D03C0B"/>
<path d="M89.9935 133.936C89.745 134.131 89.5092 134.339 89.2735 134.547C89.1919 134.619 89.1087 134.69 89.0255 134.76C88.8591 134.901 88.6927 135.042 88.5391 135.195C88.4239 135.31 88.3051 135.422 88.1863 135.534C88.0675 135.645 87.9487 135.757 87.8335 135.872C87.6055 136.089 87.3857 136.323 87.168 136.554C87.0969 136.629 87.026 136.705 86.9551 136.779C86.8687 136.88 86.7787 136.981 86.6887 137.082C86.5987 137.182 86.5087 137.283 86.4223 137.384L85.9039 138.003C85.693 138.258 85.4929 138.518 85.2936 138.777C85.1663 138.943 85.0394 139.108 84.9103 139.27C84.7879 139.422 84.6691 139.58 84.5503 139.738C84.4315 139.897 84.3127 140.055 84.1903 140.206C84.0751 140.35 83.9455 140.509 83.8159 140.653C83.6864 140.811 83.5568 140.955 83.4273 141.099C83.3121 141.229 83.1679 141.402 83.1103 141.546C83.0527 141.69 82.9807 141.805 82.8943 141.906L82.6351 142.208C82.5978 142.253 82.5594 142.298 82.5209 142.343C82.4109 142.471 82.2991 142.602 82.2031 142.741C82.1023 142.885 81.9727 143.072 81.9439 143.216C81.9007 143.475 81.7855 143.648 81.6127 143.864C81.4687 144.066 81.3391 144.296 81.2239 144.526C81.1663 144.642 81.1087 144.771 81.0512 144.901L80.6479 145.707C80.5831 145.844 80.5219 145.981 80.4607 146.118C80.3995 146.254 80.3383 146.391 80.2735 146.528C80.235 146.616 80.1965 146.705 80.1583 146.794V148.528C80.3862 148.003 80.6212 147.48 80.8639 146.96C80.9359 146.816 81.0007 146.668 81.0655 146.521C81.1303 146.373 81.1951 146.226 81.2671 146.082L81.6991 145.218C81.7336 145.154 81.7657 145.091 81.7974 145.029C81.8452 144.935 81.892 144.843 81.9439 144.757L82.2031 144.31C82.25 144.232 82.2968 144.153 82.3439 144.074C82.4706 143.859 82.5995 143.642 82.7359 143.432L83.5135 142.309L84.3343 141.214C84.385 141.153 84.4362 141.093 84.4875 141.032C84.7275 140.746 84.9704 140.457 85.1839 140.149C85.4575 139.789 85.7167 139.429 85.9759 139.069C86.0589 138.949 86.1478 138.835 86.235 138.723C86.284 138.66 86.3325 138.598 86.3791 138.536C86.4621 138.416 86.551 138.302 86.6382 138.19C86.6872 138.127 86.7357 138.065 86.7823 138.003C86.9371 137.777 87.1215 137.57 87.3029 137.367C87.3408 137.325 87.3786 137.282 87.4159 137.24C87.4746 137.178 87.5324 137.115 87.5899 137.053C87.7582 136.871 87.9247 136.692 88.1071 136.52C88.2727 136.362 88.4347 136.2 88.5967 136.038C88.7587 135.876 88.9207 135.714 89.0863 135.555C89.3743 135.296 89.6623 135.037 89.9791 134.821C89.9839 134.817 89.9887 134.814 89.9935 134.811V133.936Z" fill="#D03C0B"/>
<path d="M89.9935 140.347C89.8614 140.435 89.7318 140.527 89.6047 140.624C89.5003 140.69 89.4022 140.775 89.3061 140.859C89.2565 140.902 89.2074 140.944 89.1583 140.984C89.0144 141.099 88.8704 141.243 88.7408 141.372C88.4156 141.698 88.1373 142.07 87.8636 142.436C87.8344 142.475 87.8051 142.514 87.7759 142.553L87.5455 142.884L87.4303 143.057L87.3295 143.23L87.1135 143.576L86.9119 143.921C86.5519 144.54 86.2351 145.174 85.9471 145.822C85.8895 145.98 85.8175 146.153 85.7455 146.312C85.6735 146.484 85.6159 146.643 85.5727 146.816C85.3999 147.478 85.2559 148.14 85.1551 148.817C85.1246 149.031 85.0864 149.242 85.0426 149.451H85.7419C85.7644 149.348 85.7868 149.245 85.8092 149.143C85.9383 148.55 86.0669 147.96 86.2207 147.377C86.3647 146.816 86.5519 146.254 86.8687 145.764C86.9407 145.664 87.0127 145.52 87.0271 145.404C87.0559 145.188 87.1567 145.03 87.2863 144.872C87.3871 144.742 87.4879 144.612 87.5743 144.468C87.579 144.461 87.5837 144.453 87.5885 144.446C87.6572 144.337 87.7327 144.216 87.7327 144.108C87.7327 143.907 87.8335 143.792 87.9631 143.648C88.0207 143.59 88.0783 143.504 88.1215 143.432C88.1431 143.396 88.1683 143.356 88.1935 143.316C88.2187 143.277 88.2439 143.237 88.2655 143.201C88.3087 143.115 88.352 143.028 88.4095 142.942C88.4527 142.884 88.4943 142.825 88.5359 142.766C88.6191 142.648 88.7023 142.529 88.7983 142.424L89.0143 142.179L89.1151 142.049L89.2303 141.934L89.4895 141.646L89.7631 141.372L89.9935 141.165V140.347Z" fill="#D03C0B"/>
<path d="M111.421 39.4785H52.0638V111.335H86.1198H111.421H136.736V63.1377C136.736 50.0625 125.403 39.4785 111.421 39.4785Z" fill="#E6A8FF"/>
<path d="M77.3647 111.334H28.5775L18.1807 134.058C13.8175 143.59 18.6127 151.338 28.8799 151.338H40.4719C50.7391 151.338 62.6047 143.605 66.9679 134.058L77.3647 111.334Z" fill="#E6A8FF"/>
<path fill-rule="evenodd" clip-rule="evenodd" d="M136.736 74.3431C136.626 74.3229 136.507 74.3563 136.405 74.4705C135.958 74.9457 135.483 75.3921 134.979 75.8097C130.861 79.1361 124.827 79.7841 120.19 77.1633C119.92 77.0111 119.654 76.8496 119.395 76.6792C120.893 74.5084 121.138 71.7679 120.061 69.3297C119.513 68.1057 118.635 66.9969 117.526 66.2481C116.993 65.8881 116.374 65.6145 115.755 65.4417C115.078 65.2689 114.286 65.1393 113.624 65.4273C112.184 66.0465 112.529 67.9761 112.846 69.1713C113.221 70.5681 113.825 71.9217 114.617 73.1313C115.553 74.5778 116.736 75.8534 118.102 76.8897C117.609 77.453 117.037 77.953 116.417 78.3729C114.099 79.9425 111.291 80.4033 108.555 79.9857C105.401 79.5105 102.449 77.9409 99.915 76.0545C97.0554 73.9253 94.3796 70.907 93.3622 67.4406C93.7455 65.9487 93.6791 64.3664 92.9886 62.8929C92.787 62.4609 92.211 62.6769 92.1534 63.0801C92.0526 63.7569 92.0238 64.4337 92.0526 65.1249C92.0981 65.9305 92.2277 66.7152 92.4299 67.4766C92.2537 68.0675 91.9985 68.6389 91.6782 69.1713C90.7278 70.7697 89.2014 72.1089 87.4158 72.6993C85.1982 73.4193 82.8654 73.1313 80.6622 72.1953C78.459 71.2593 76.5438 69.6897 75.1038 67.7889C73.7214 65.9601 72.7422 63.7281 72.8862 61.4097C72.9294 60.8481 72.0366 60.8049 72.0078 61.3665C71.835 64.2321 73.1886 66.9681 75.0318 69.0993C78.2142 72.7857 83.8446 75.4209 88.5822 73.1889C90.4368 72.3196 92.0034 70.7068 92.8696 68.8216C94.4874 72.9799 98.2192 76.3458 101.96 78.5025C104.912 80.2017 108.31 81.3537 111.752 80.9937C114.436 80.7184 117.069 79.4558 118.83 77.4074C119.571 77.9008 120.358 78.3266 121.184 78.6753C126.388 80.8474 132.794 79.4277 136.736 75.3905V74.3431ZM118.667 76.1663C119.509 74.9505 119.991 73.5117 119.873 71.9793C119.701 69.6177 118.203 67.1409 115.885 66.3633C115.352 66.1761 114.589 65.9745 114.041 66.1761C113.422 66.4065 113.422 67.2273 113.48 67.7745C113.624 69.0849 114.142 70.3953 114.747 71.5473C115.69 73.3551 117.042 74.9408 118.667 76.1663Z" fill="#891EFA"/>
<path d="M136.736 64.9562V65.9535C133.852 64.5531 131.466 62.1932 130.817 58.9761C130.404 56.9649 130.762 54.7414 131.762 52.9202C127.464 54.1034 122.54 53.1208 118.563 51.4017C115.438 50.0481 112.486 47.9889 110.715 45.0225C109.727 43.3631 109.16 41.419 109.137 39.4785H110.045C110.046 39.565 110.049 39.6514 110.053 39.7377C110.168 42.5313 111.478 45.0657 113.437 47.0097C115.697 49.2417 118.721 50.6817 121.745 51.5889C125.161 52.6104 129.189 52.9591 132.587 51.6922C132.773 51.4633 132.973 51.2456 133.184 51.0412C133.251 51.1468 133.318 51.2529 133.383 51.3595C133.475 51.5077 133.564 51.6568 133.652 51.807C133.717 51.9189 133.782 52.0314 133.845 52.1445C133.593 52.2655 133.338 52.3771 133.079 52.4798C132.713 52.9708 132.408 53.512 132.171 54.0801C131.465 55.8081 131.293 57.8241 131.897 59.6097C132.632 61.8129 134.259 63.5121 136.318 64.7217C136.456 64.8026 136.595 64.8807 136.736 64.9562Z" fill="#891EFA"/>
<path fill-rule="evenodd" clip-rule="evenodd" d="M105.68 111.335C105.887 110.44 106.032 109.53 106.093 108.613C106.309 105.517 105.56 102.363 103.486 99.9874C102.579 98.9362 101.456 98.0722 100.16 97.5538C98.691 96.9634 97.0782 96.8338 95.5086 97.1074C95.1761 97.1636 94.846 97.2348 94.5191 97.3201C94.7913 96.0695 94.9326 94.7898 94.9326 93.5074C94.9326 91.909 94.6734 90.2674 93.9102 88.8418C93.2478 87.6178 92.1822 86.6674 90.915 86.1058C88.4094 84.9826 85.4718 85.2274 82.9086 85.9762C79.8414 86.869 76.9902 88.4962 74.6286 90.6562C74.0526 91.189 73.5054 91.7506 72.987 92.341C72.6414 92.7442 73.2606 93.2626 73.6062 92.8594C75.5502 90.6274 77.9982 88.8274 80.7198 87.6322C83.1534 86.5666 85.875 85.861 88.539 86.2642C89.7054 86.437 90.8574 86.8402 91.7934 87.5746C92.9022 88.453 93.579 89.7202 93.8814 91.1026C94.3403 93.1956 94.1728 95.4713 93.6427 97.5848C91.2126 98.4189 89.0073 100.015 87.3726 101.96C86.883 102.536 86.451 103.155 86.0622 103.803C85.6734 104.451 85.3278 105.099 85.155 105.805C85.0254 106.352 84.9966 107 85.2126 107.533C85.4718 108.138 86.0766 108.498 86.739 108.411C87.4405 108.317 88.0409 107.793 88.5639 107.336C88.5991 107.305 88.634 107.275 88.6686 107.245C89.2158 106.77 89.763 106.237 90.2526 105.69C91.2318 104.595 92.0814 103.371 92.7726 102.075C93.4208 100.859 93.9326 99.5684 94.2949 98.2364C96.9766 97.4162 99.8286 97.6645 102.133 99.757C104.192 101.643 105.214 104.365 105.315 107.115C105.365 108.535 105.174 109.954 104.848 111.335H105.68ZM93.368 98.5645C90.9263 99.5459 88.703 101.369 87.2718 103.415C86.8542 104.019 86.5086 104.639 86.2062 105.301C85.9758 105.805 85.8174 106.367 85.9038 106.914C85.9902 107.504 86.4366 107.749 86.9982 107.475C87.588 107.201 88.1256 106.678 88.5984 106.219C88.622 106.196 88.6453 106.173 88.6686 106.151C90.6558 104.279 92.1678 101.931 93.1038 99.3538C93.1969 99.0949 93.2851 98.8315 93.368 98.5645Z" fill="#891EFA"/>
<path d="M93.6067 39.4785H92.7861C92.9595 40.9779 92.6373 42.5239 91.9518 43.8849C91.0158 45.7425 89.3742 47.1249 87.4158 47.8161C85.371 48.5217 83.0814 48.4641 81.0366 47.8017C77.1865 46.5576 74.4559 43.2056 73.148 39.4785H72.2878C73.0192 41.6783 74.1882 43.7418 75.795 45.4113C77.4366 47.1105 79.4814 48.3489 81.7998 48.8529C84.0894 49.3569 86.5662 49.1841 88.6974 48.1617C91.9059 46.6103 93.973 42.9774 93.6067 39.4785Z" fill="#891EFA"/>
<path d="M136.736 95.8936C134.662 94.035 131.652 93.1902 128.902 93.8241C126.598 94.3425 124.553 95.7537 123.085 97.5825C121.601 99.4257 120.766 101.672 120.55 104.019C120.321 106.503 120.762 109.024 121.695 111.335H122.578C120.879 107.388 120.709 102.571 123.142 98.8785C124.323 97.0929 126.08 95.6097 128.11 94.8897C130.069 94.1985 132.214 94.2561 134.101 95.1201C135.098 95.576 136.007 96.2258 136.736 97.0292V95.8936Z" fill="#891EFA"/>
<path d="M77.3646 111.335H28.6926V63.4689C28.6926 50.2209 39.435 39.4641 52.6974 39.4641H53.3886C66.6366 39.4641 77.3934 50.2065 77.3934 63.4689V111.335H77.3646Z" fill="#3B0470"/>
<path d="M100.117 18.4543H95.9839V79.0639H100.117V18.4543Z" fill="#0041D9"/>
<path d="M115.251 27.2959L95.9839 32.7679V18.4543H115.251V27.2959Z" fill="#0041D9"/>
<path d="M97.9855 84.1184C101.612 84.1184 104.552 81.1785 104.552 77.552C104.552 73.9255 101.612 70.9856 97.9855 70.9856C94.359 70.9856 91.4191 73.9255 91.4191 77.552C91.4191 81.1785 94.359 84.1184 97.9855 84.1184Z" fill="#111116"/>
<path d="M77.3646 73.7649H33.5166V111.334H77.3646V73.7649Z" fill="white"/>
<path d="M33.4446 110.499C33.6606 110.283 33.9342 110.139 34.1502 109.923C34.4238 109.635 34.755 109.405 35.0574 109.146C35.0718 109.131 35.1006 109.088 35.115 109.088C35.3454 109.059 35.4318 108.858 35.5758 108.714C35.835 108.454 36.0222 108.123 36.3246 107.893C36.6126 107.662 36.8862 107.418 37.1742 107.173C37.3326 107.029 37.5054 106.899 37.635 106.741C37.9662 106.352 38.3406 106.035 38.7438 105.718C39.2622 105.33 39.7662 104.926 40.2558 104.494C40.7886 104.019 41.3502 103.573 41.8974 103.112C41.955 103.069 42.027 103.026 42.099 102.982C42.1422 102.954 42.1998 102.939 42.2286 102.896C42.459 102.565 42.8766 102.507 43.1502 102.219C43.3374 102.19 43.4382 102.061 43.539 101.917C43.6254 101.802 43.755 101.73 43.8702 101.643C43.9278 101.6 44.0142 101.571 44.0574 101.499C44.2446 101.254 44.5326 101.125 44.7342 100.909C44.907 100.88 45.0078 100.75 45.1374 100.65C45.267 100.549 45.411 100.434 45.555 100.347C45.7854 100.203 46.0302 100.074 46.275 99.9296C46.3614 99.872 46.4622 99.8432 46.5486 99.7712C47.0526 99.3248 47.5998 98.936 48.147 98.5472C48.2766 98.4608 48.3918 98.3456 48.5214 98.2592L49.1694 97.7984C49.3566 97.6688 49.5438 97.5392 49.7022 97.3952C50.1054 97.0208 50.5374 96.704 50.955 96.3728C51.2862 96.128 51.603 95.8832 51.9486 95.6672C52.1214 95.5664 52.2654 95.4368 52.4094 95.2928C52.5246 95.1776 52.6398 95.0912 52.7982 95.0336C52.9422 94.9904 53.043 94.904 53.115 94.76C53.1726 94.6448 53.3166 94.5584 53.4462 94.4864C53.763 94.2848 54.0942 94.0832 54.411 93.8672C54.4398 93.8528 54.483 93.824 54.4974 93.7952C54.9294 93.3056 55.4478 92.9312 55.9518 92.528C56.2254 92.2976 56.499 92.0672 56.7438 91.808C56.9166 91.6352 57.1182 91.5056 57.3198 91.3904C57.435 91.3328 57.5214 91.3616 57.579 91.4768C57.6222 91.5632 57.651 91.6496 57.6654 91.736C57.6798 91.7648 57.6654 91.8224 57.6366 91.8512C57.507 91.9808 57.435 92.1536 57.2334 92.2112C56.9886 92.2832 56.8014 92.4416 56.6286 92.6432C56.499 92.8016 56.3406 92.9456 56.2254 93.1328C56.1822 93.1904 56.1102 93.248 56.0526 93.2768C55.6494 93.4496 55.3326 93.7232 55.0734 94.0544C55.0014 94.1408 54.9294 94.1984 54.8286 94.256C54.6558 94.3424 54.483 94.4576 54.3246 94.5728C54.2958 94.5872 54.267 94.6304 54.2382 94.6592C54.1662 94.832 54.051 94.9472 53.8638 94.9904C53.835 94.9904 53.8206 95.0192 53.8062 95.0336C53.6478 95.2784 53.3742 95.3792 53.1582 95.5376C52.899 95.7248 52.683 95.9552 52.4382 96.1568C52.3518 96.2288 52.2366 96.2864 52.1502 96.3584L51.5886 96.7328C51.4446 96.8336 51.315 96.9488 51.171 97.0208C51.0702 97.0784 50.9262 97.0496 50.8398 97.1216C50.7534 97.1792 50.7246 97.3232 50.6526 97.4096C50.6238 97.4528 50.5662 97.4816 50.523 97.496C50.2638 97.6256 50.0334 97.8128 49.803 97.9856C49.6878 98.072 49.5582 98.1584 49.443 98.2304C49.155 98.432 48.8958 98.648 48.5934 98.8064C48.3198 98.9648 48.1182 99.224 47.859 99.3968C47.6142 99.5696 47.3838 99.7712 47.139 99.9584C47.0094 100.059 46.8798 100.146 46.7502 100.232C46.3614 100.506 45.9438 100.736 45.5982 101.067C45.5406 101.125 45.4686 101.168 45.411 101.211C45.2958 101.269 45.1662 101.298 45.0654 101.37C44.979 101.442 44.9214 101.571 44.835 101.629C44.4462 101.874 44.115 102.219 43.7406 102.493C43.4238 102.723 43.1646 103.026 42.8046 103.213C42.6894 103.27 42.6174 103.386 42.5166 103.472C42.4446 103.53 42.387 103.616 42.3006 103.645C42.0558 103.76 41.8686 103.933 41.667 104.106C41.5662 104.192 41.4654 104.278 41.3358 104.322C41.0478 104.437 40.875 104.653 40.6734 104.869C40.6158 104.941 40.5582 105.027 40.4862 105.07C40.1262 105.272 39.867 105.603 39.5358 105.834C39.291 106.006 39.075 106.222 38.787 106.323C38.6862 106.352 38.6142 106.453 38.5278 106.51C38.4126 106.582 38.3262 106.726 38.1678 106.741C38.139 106.741 38.0958 106.77 38.067 106.798C37.7646 107.187 37.3758 107.504 37.0878 107.922C36.843 108.282 36.4974 108.584 36.1662 108.886C36.0654 108.987 36.0078 109.117 35.8494 109.16C35.8062 109.174 35.7774 109.261 35.7342 109.304C35.6334 109.419 35.547 109.578 35.4174 109.65C35.2014 109.765 35.043 109.938 34.8702 110.096C34.7118 110.254 34.539 110.398 34.3518 110.528C34.1214 110.686 33.9342 110.888 33.7182 111.075C33.675 111.118 33.6174 111.162 33.5598 111.19C33.4302 111.248 33.2862 111.219 33.1998 111.118C33.1566 111.061 33.1278 111.003 33.099 110.946C33.0126 110.802 33.027 110.744 33.1422 110.643C33.2574 110.658 33.3582 110.571 33.4446 110.499Z" fill="#3B0470"/>
<path d="M34.4526 74.1537C34.7406 74.3553 34.971 74.6289 35.259 74.8305C35.6334 75.0897 35.9934 75.3921 36.3678 75.6801C36.3966 75.6945 36.4398 75.7089 36.4398 75.7377C36.5406 75.9825 36.7854 76.0401 36.9726 76.1841C37.3326 76.4145 37.7358 76.5585 38.0814 76.8321C38.4126 77.1057 38.7726 77.3505 39.1326 77.5953C39.3342 77.7393 39.5358 77.8833 39.7518 77.9985C40.2702 78.2721 40.7454 78.6033 41.2206 78.9633C41.8254 79.4241 42.4302 79.8705 43.0638 80.2737C43.755 80.7345 44.4462 81.2097 45.1374 81.6705C45.2094 81.7281 45.2814 81.7857 45.3534 81.8577C45.3966 81.9009 45.4398 81.9585 45.4974 81.9729C45.9294 82.1313 46.1598 82.5633 46.5486 82.7793C46.6494 82.9665 46.8222 83.0385 47.0094 83.1105C47.1534 83.1681 47.2974 83.2977 47.427 83.3985C47.499 83.4561 47.571 83.5281 47.643 83.5569C47.9742 83.6865 48.219 83.9601 48.5214 84.1329C48.6222 84.3057 48.795 84.3777 48.9534 84.4929C49.1118 84.6081 49.2846 84.7233 49.4286 84.8529C49.6734 85.0689 49.9038 85.2849 50.1486 85.5009C50.235 85.5873 50.3214 85.6737 50.4222 85.7457C51.0846 86.1633 51.7182 86.6529 52.3374 87.1281C52.4814 87.2433 52.6398 87.3441 52.7838 87.4593L53.5182 88.0353C53.7198 88.1937 53.9358 88.3665 54.1518 88.5105C54.699 88.8417 55.203 89.2161 55.707 89.6049C56.0958 89.8929 56.4702 90.1809 56.8302 90.4977C57.003 90.6561 57.1902 90.7857 57.3918 90.9009C57.5502 91.0017 57.6942 91.1025 57.8094 91.2609C57.9102 91.3905 58.0398 91.4913 58.2126 91.5345C58.3566 91.5777 58.5006 91.7217 58.6158 91.8225C58.947 92.1249 59.2782 92.4273 59.6094 92.7297C59.6382 92.7585 59.6814 92.7873 59.7246 92.8161C60.387 93.1761 60.963 93.6801 61.5534 94.1409C61.8846 94.4001 62.2158 94.6593 62.5614 94.8897C62.7918 95.0481 62.9934 95.2497 63.1806 95.4513C63.2814 95.5665 63.2814 95.6529 63.1662 95.7393C63.0942 95.7969 63.0078 95.8257 62.9214 95.8689C62.8926 95.8833 62.8206 95.8833 62.7918 95.8545C62.619 95.7249 62.403 95.6817 62.2878 95.4657C62.1438 95.2065 61.9134 95.0337 61.6542 94.8897C61.4382 94.7745 61.2366 94.6161 61.0062 94.5297C60.9342 94.5009 60.8478 94.4289 60.7902 94.3713C60.4734 93.9825 60.0846 93.6945 59.6382 93.4641C59.523 93.4065 59.4366 93.3345 59.3502 93.2481C59.1918 93.0753 59.019 92.9313 58.8462 92.7729C58.8174 92.7441 58.7742 92.7153 58.731 92.7009C58.5294 92.6577 58.371 92.5569 58.2558 92.3697C58.2414 92.3409 58.2126 92.3265 58.1838 92.3121C57.8814 92.1825 57.6654 91.9233 57.4206 91.7361C57.1326 91.5057 56.8014 91.3185 56.499 91.1169C56.3838 91.0449 56.283 90.9441 56.1822 90.8577L55.5774 90.3537C55.419 90.2241 55.2462 90.1089 55.1022 89.9793C55.0158 89.8929 54.9726 89.7345 54.8718 89.6625C54.771 89.5905 54.627 89.5761 54.4974 89.5329C54.4398 89.5185 54.3966 89.4609 54.3534 89.4177C54.123 89.1729 53.835 88.9857 53.5614 88.7841C53.4174 88.6833 53.2878 88.5681 53.1582 88.4673C52.8414 88.2225 52.5102 87.9777 52.2222 87.7185C51.9486 87.4593 51.603 87.3297 51.315 87.0993C51.0414 86.8833 50.739 86.6961 50.451 86.4801C50.307 86.3793 50.1486 86.2641 50.0046 86.1489C49.5582 85.8177 49.155 85.4289 48.6654 85.1553C48.579 85.1121 48.507 85.0545 48.4494 84.9825C48.3486 84.8817 48.2622 84.7521 48.147 84.6657C48.0462 84.5793 47.8878 84.5649 47.787 84.4785C47.3694 84.1329 46.8942 83.8737 46.4622 83.5425C46.0878 83.2689 45.6846 83.0529 45.339 82.7361C45.2382 82.6353 45.0798 82.5777 44.9502 82.4913C44.8638 82.4337 44.7486 82.3905 44.6766 82.3185C44.4606 82.0881 44.2014 81.9297 43.9422 81.7569C43.8126 81.6705 43.683 81.5841 43.5822 81.4689C43.3518 81.1953 43.0494 81.0513 42.747 80.9073C42.6462 80.8641 42.531 80.8209 42.459 80.7633C42.1134 80.4321 41.667 80.2305 41.2926 79.9281C41.019 79.7121 40.7166 79.5249 40.5006 79.2369C40.4286 79.1505 40.3134 79.0785 40.2126 79.0065C40.083 78.8913 39.9246 78.8337 39.8382 78.6609C39.8238 78.6321 39.7806 78.5889 39.7374 78.5745C39.219 78.3297 38.7438 77.9841 38.1966 77.7537C37.7214 77.5521 37.2894 77.2353 36.8718 76.9329C36.7422 76.8465 36.5694 76.7889 36.483 76.6305C36.4542 76.5873 36.3534 76.5585 36.2958 76.5297C36.1374 76.4433 35.9502 76.3713 35.835 76.2417C35.6478 76.0257 35.403 75.8961 35.1726 75.7233C34.9566 75.5649 34.755 75.4065 34.5534 75.2193C34.323 74.9889 34.0494 74.8017 33.7902 74.6001C33.7326 74.5569 33.6606 74.4993 33.6174 74.4417C33.5166 74.3121 33.5022 74.1537 33.603 74.0529C33.6462 74.0097 33.7038 73.9665 33.7614 73.9233C33.9054 73.8225 33.963 73.8225 34.107 73.9377C34.2366 73.9809 34.3374 74.0673 34.4526 74.1537Z" fill="#3B0470"/>
<path d="M68.5661 91.7647C68.6525 91.8367 68.6813 91.9663 68.7821 92.0383C68.9117 92.1247 68.9981 92.2543 69.1133 92.3551C69.1133 92.3695 69.1421 92.3551 69.1421 92.3695C69.0989 92.5135 69.2285 92.4991 69.2861 92.5423C69.4157 92.6287 69.6029 92.6143 69.7037 92.7295C69.7901 92.8447 69.9197 92.9167 70.0205 93.0031C70.0781 93.0463 70.1501 93.1039 70.2221 93.1327C70.4237 93.1903 70.5677 93.3199 70.7117 93.4495C70.8845 93.6223 71.0717 93.7951 71.2877 93.9247C71.5181 94.0831 71.7341 94.2415 71.9501 94.4143C71.9789 94.4287 71.9789 94.4719 72.0077 94.4863C72.0221 94.5007 72.0221 94.5439 72.0365 94.5439C72.2237 94.5439 72.1949 94.8031 72.3389 94.8463C72.3245 94.9615 72.3965 94.9615 72.4829 94.9615C72.5549 94.9615 72.5837 95.0191 72.6269 95.0623C72.6557 95.0767 72.6557 95.1199 72.6845 95.1199C72.8285 95.1343 72.8573 95.2639 72.9869 95.3071C72.9725 95.4079 73.0589 95.4079 73.1021 95.4511C73.1597 95.4943 73.2029 95.5375 73.2461 95.5951C73.3037 95.6815 73.3613 95.7823 73.4189 95.8831C73.4477 95.9119 73.4477 95.9695 73.4909 95.9839C73.7213 96.1135 73.9085 96.3007 74.0957 96.4735C74.1389 96.5167 74.1965 96.5455 74.2397 96.5887L74.4557 96.8047C74.5133 96.8623 74.5709 96.9343 74.6573 96.9775C74.8445 97.0783 75.0029 97.2079 75.1757 97.3519C75.2909 97.4527 75.4205 97.5535 75.5069 97.6975C75.5501 97.7551 75.6221 97.7983 75.6941 97.8415C75.7517 97.8703 75.7949 97.8991 75.8093 97.9855C75.8093 98.0575 75.8525 98.0863 75.9389 98.0719C76.0109 98.0575 76.0397 98.1295 76.0685 98.1727C76.1549 98.2879 76.2413 98.4175 76.3277 98.5471C76.3421 98.5615 76.3421 98.5759 76.3565 98.5759C76.6157 98.6479 76.7885 98.8351 76.9757 98.9935C77.0765 99.0799 77.1917 99.1663 77.3213 99.2239C77.4077 99.2671 77.4509 99.3535 77.4941 99.4399C77.5229 99.4831 77.4797 99.5551 77.3789 99.6415C77.3213 99.6991 77.2493 99.7567 77.1773 99.7999C77.1485 99.8143 77.1197 99.8431 77.1053 99.8287C77.0477 99.7855 76.9325 99.8143 76.9325 99.6991C76.9325 99.5551 76.8605 99.4975 76.7453 99.4687C76.6589 99.4543 76.5869 99.3967 76.4861 99.3967C76.4429 99.3967 76.4285 99.3823 76.4141 99.3391C76.3709 99.1519 76.2269 99.0511 76.0541 99.0223C76.0109 99.0079 75.9821 98.9935 75.9677 98.9503C75.9389 98.8783 75.8813 98.8063 75.8381 98.7487C75.8237 98.7343 75.8093 98.7343 75.7949 98.7343C75.6941 98.7631 75.6365 98.7343 75.6365 98.6335C75.6365 98.6191 75.6221 98.6047 75.6221 98.6047C75.4781 98.6047 75.4637 98.4607 75.3773 98.4031C75.2909 98.3167 75.1613 98.2735 75.0605 98.2015C75.0173 98.1727 75.0029 98.1295 74.9741 98.1007C74.9165 98.0287 74.8589 97.9711 74.8013 97.8991C74.7581 97.8559 74.7005 97.8127 74.6717 97.7551C74.6573 97.7119 74.6861 97.6111 74.6573 97.5823C74.6285 97.5535 74.5421 97.5967 74.4845 97.5967C74.4557 97.5967 74.4413 97.5823 74.4413 97.5535C74.3981 97.4383 74.2973 97.3807 74.2109 97.3087C74.1677 97.2799 74.1389 97.2223 74.0957 97.1791C74.0093 97.0783 73.8941 97.0063 73.8221 96.8767C73.7501 96.7615 73.6061 96.7471 73.5197 96.6607C73.4333 96.5743 73.3325 96.5167 73.2461 96.4447C73.2029 96.4015 73.1597 96.3583 73.1165 96.3151C72.9869 96.1855 72.8861 96.0127 72.7133 95.9407C72.6845 95.9263 72.6557 95.9119 72.6413 95.8687C72.6125 95.8255 72.6125 95.7535 72.5837 95.7103C72.5549 95.6815 72.4685 95.7103 72.4397 95.6671C72.3245 95.5231 72.1517 95.4511 72.0221 95.3359C71.9069 95.2351 71.7485 95.1919 71.6765 95.0335C71.6477 94.9903 71.5901 94.9759 71.5469 94.9615C71.5181 94.9471 71.4749 94.9327 71.4605 94.9039C71.4173 94.7887 71.3309 94.7455 71.2445 94.6879C71.2013 94.6591 71.1581 94.6303 71.1437 94.5727C71.1149 94.4287 70.9997 94.4143 70.8701 94.3711C70.8269 94.3567 70.7837 94.3711 70.7549 94.3279C70.6829 94.1695 70.4957 94.1407 70.3949 94.0255C70.3229 93.9391 70.2077 93.8815 70.1933 93.7231C70.1933 93.6799 70.1357 93.6655 70.1213 93.6223C70.0925 93.5791 70.0205 93.5647 70.0349 93.4639C70.0349 93.4495 70.0349 93.4207 70.0205 93.4207C69.8045 93.3775 69.6605 93.2479 69.4157 93.2047C69.2141 93.1759 69.0701 93.0607 68.9405 92.9455C68.8973 92.9167 68.8109 92.9167 68.8253 92.8303C68.8253 92.8015 68.7677 92.8159 68.7533 92.8015C68.6957 92.7727 68.5949 92.7727 68.5805 92.7151C68.5517 92.6143 68.4653 92.5711 68.3933 92.5135C68.3213 92.4559 68.2637 92.3983 68.2205 92.3119C68.1629 92.2111 68.0765 92.1535 68.0045 92.0671C67.9901 92.0527 67.9613 92.0239 67.9613 92.0095C67.9469 91.9519 68.0189 91.8511 68.1197 91.7647C68.1629 91.7215 68.2205 91.6927 68.2781 91.6495C68.4077 91.5487 68.4509 91.5487 68.4941 91.5919C68.5085 91.6927 68.5373 91.7359 68.5661 91.7647Z" fill="#3B0470"/>
<path d="M63.051 95.264C63.195 95.1632 63.3678 95.1344 63.5118 95.0192C63.6846 94.8608 63.8862 94.76 64.0734 94.6304C64.0878 94.616 64.0878 94.6016 64.1022 94.6016C64.2606 94.6448 64.3038 94.5008 64.3902 94.4144C64.5486 94.2704 64.635 94.04 64.8222 93.9248C65.0094 93.8096 65.1678 93.6656 65.3262 93.536C65.4126 93.464 65.5134 93.392 65.5854 93.2912C65.7582 93.0464 65.9742 92.8592 66.219 92.7008C66.5214 92.4848 66.8238 92.2688 67.0974 92.0096C67.3998 91.736 67.7166 91.4768 68.0334 91.2032C68.0622 91.1744 68.1198 91.16 68.163 91.1456C68.1918 91.1312 68.235 91.1312 68.2494 91.1024C68.3502 90.872 68.6526 90.9152 68.7822 90.728C68.9118 90.7424 68.955 90.656 68.9982 90.5552C69.0414 90.4832 69.1278 90.44 69.1854 90.3968C69.2142 90.368 69.2718 90.368 69.3006 90.3248C69.387 90.152 69.5742 90.1088 69.675 89.9648C69.7902 89.9792 69.8478 89.8784 69.9198 89.8208C69.9918 89.7632 70.0782 89.7056 70.1646 89.648C70.3086 89.576 70.4526 89.504 70.5966 89.4464C70.6542 89.4176 70.7118 89.4032 70.755 89.36C71.0286 89.0864 71.3454 88.856 71.6766 88.64C71.7486 88.5824 71.8206 88.5248 71.8926 88.4672L72.267 88.208C72.3678 88.136 72.483 88.064 72.5838 87.9776C72.7998 87.7472 73.0446 87.56 73.2894 87.3584C73.4766 87.2144 73.6638 87.0704 73.8798 86.9696C73.9806 86.912 74.067 86.84 74.139 86.7536C74.1966 86.6816 74.2686 86.624 74.3694 86.624C74.4558 86.6096 74.5134 86.5664 74.5422 86.4656C74.571 86.3792 74.6574 86.3504 74.7294 86.3072C74.9166 86.2064 75.1182 86.1056 75.3198 86.0048C75.3342 85.9904 75.363 85.976 75.3774 85.9616C75.5934 85.6448 75.9246 85.4432 76.2126 85.2128C76.371 85.0832 76.5294 84.9536 76.6734 84.7952C76.7742 84.6944 76.8894 84.6368 77.0334 84.5792C77.1054 84.5504 77.1774 84.5936 77.235 84.7088C77.2782 84.7808 77.307 84.8672 77.3358 84.9392C77.3502 84.968 77.3502 85.0112 77.3358 85.0256C77.2638 85.0976 77.235 85.2272 77.091 85.2272C76.9182 85.2272 76.803 85.3136 76.7166 85.4432C76.6446 85.544 76.5582 85.6304 76.5006 85.76C76.4862 85.8032 76.443 85.832 76.3998 85.8464C76.1406 85.904 75.9534 86.0624 75.8238 86.2784C75.795 86.336 75.7518 86.3648 75.6798 86.3936C75.5646 86.4368 75.4638 86.4944 75.363 86.552C75.3486 86.5664 75.3198 86.5808 75.3198 86.6096C75.291 86.7392 75.2334 86.8112 75.1038 86.8112C75.0894 86.8112 75.075 86.8256 75.0606 86.84C74.9886 87.0128 74.8158 87.0272 74.6862 87.128C74.5422 87.2288 74.427 87.3872 74.283 87.5024C74.2398 87.5456 74.1678 87.5744 74.1102 87.6032L73.779 87.8048C73.6926 87.8624 73.6206 87.9344 73.5342 87.9632C73.4766 87.992 73.3614 87.9344 73.3182 87.9776C73.275 88.0208 73.275 88.1216 73.2462 88.1792C73.2318 88.208 73.203 88.2224 73.1742 88.2368C73.0014 88.2944 72.8862 88.4096 72.7566 88.5104C72.6846 88.568 72.6126 88.6112 72.5406 88.6544C72.3678 88.7696 72.2238 88.8848 72.0366 88.9712C71.8638 89.0576 71.7774 89.2304 71.619 89.3312C71.475 89.432 71.3454 89.5472 71.2158 89.6624C71.1438 89.72 71.0718 89.7632 70.9854 89.8208C70.755 89.9792 70.4958 90.0944 70.3086 90.296C70.2798 90.3248 70.2366 90.3536 70.1934 90.368C70.1214 90.3968 70.035 90.3968 69.9774 90.44C69.9198 90.4832 69.9198 90.584 69.8622 90.6128C69.6174 90.7424 69.459 90.9584 69.243 91.1168C69.0558 91.2464 68.9262 91.448 68.7102 91.5344C68.6382 91.5632 68.6094 91.6352 68.5518 91.6928C68.5086 91.736 68.4798 91.7792 68.4366 91.7936C68.2782 91.8368 68.1774 91.952 68.0622 92.0528C68.0046 92.096 67.947 92.1536 67.8606 92.168C67.6734 92.1968 67.587 92.3552 67.4862 92.4848C67.4574 92.528 67.4286 92.6 67.3854 92.6144C67.155 92.7008 67.0254 92.9312 66.8382 93.0464C66.6942 93.1328 66.5646 93.2624 66.3774 93.2912C66.3198 93.3056 66.2766 93.3632 66.219 93.392C66.147 93.4352 66.1038 93.5216 65.9886 93.4928C65.9598 93.4928 65.931 93.4928 65.931 93.5216C65.7726 93.7808 65.5422 93.9536 65.3838 94.2272C65.2542 94.472 65.0382 94.6304 64.8366 94.8032C64.779 94.8608 64.7502 94.9472 64.635 94.9472C64.6062 94.9472 64.5918 95.0048 64.563 95.0336C64.5054 95.1056 64.4622 95.2208 64.3758 95.2352C64.2318 95.264 64.131 95.3792 64.0302 95.4656C63.9294 95.552 63.8142 95.624 63.699 95.6672C63.5406 95.7248 63.411 95.84 63.267 95.9264C63.2382 95.9408 63.195 95.9696 63.1662 95.984C63.0798 95.9984 62.979 95.9264 62.9214 95.7968C62.8926 95.7392 62.8638 95.6816 62.8494 95.624C62.7918 95.4656 62.7918 95.4224 62.8638 95.3792C62.9214 95.336 62.9934 95.2928 63.051 95.264Z" fill="#3B0470"/>
</g>
<defs>
<clipPath id="clip0_14983_10369">
<rect width="144" height="144" fill="white" transform="translate(8 8)"/>
</clipPath>
</defs>
</svg>
