<svg xmlns="http://www.w3.org/2000/svg" width="144" height="48" fill="none" viewBox="0 0 144 48"><g clip-path="url(#clip0_6024_4545)"><g clip-path="url(#clip1_6024_4545)"><path fill="#000" d="M131.768 0H11.048c-.44 0-.875 0-1.314.003q-.548.005-1.103.015c-.805.01-1.61.08-2.404.212a8 8 0 0 0-2.281.752A7.73 7.73 0 0 0-.161 6.626a15.6 15.6 0 0 0-.215 2.402c-.01.368-.012.737-.018 1.105V37.87c.006.373.007.734.018 1.107q.015 1.21.215 2.402c.132.796.385 1.566.75 2.285a7.5 7.5 0 0 0 1.414 1.937 7.5 7.5 0 0 0 1.943 1.415c.718.365 1.487.62 2.28.757q1.196.195 2.405.212.555.012 1.103.013c.44.002.874.002 1.314.002h120.72c.431 0 .87 0 1.301-.002.365 0 .74-.005 1.106-.013.804-.01 1.607-.081 2.4-.212a8.2 8.2 0 0 0 2.29-.757 7.6 7.6 0 0 0 1.941-1.415 7.7 7.7 0 0 0 1.417-1.937c.363-.72.613-1.49.743-2.285q.201-1.193.223-2.402c.005-.373.005-.734.005-1.106.009-.437.009-.87.009-1.313V11.444c0-.44 0-.876-.009-1.31q.001-.554-.005-1.106a16 16 0 0 0-.223-2.402 8 8 0 0 0-.743-2.284 7.76 7.76 0 0 0-3.358-3.36 8.1 8.1 0 0 0-2.29-.752 15.7 15.7 0 0 0-2.4-.212c-.366-.006-.741-.013-1.106-.016-.431-.002-.87-.002-1.301-.002"/><path fill="#fff" d="M9.74 46.95c-.366 0-.722-.005-1.085-.013a15 15 0 0 1-2.243-.195 7 7 0 0 1-1.988-.658 6.5 6.5 0 0 1-1.677-1.22 6.4 6.4 0 0 1-1.224-1.676A6.9 6.9 0 0 1 .87 41.2a15 15 0 0 1-.2-2.25c-.007-.253-.017-1.096-.017-1.096v-27.72s.01-.83.017-1.074q.014-1.131.2-2.247a6.9 6.9 0 0 1 .651-1.994A6.5 6.5 0 0 1 2.74 3.14a6.7 6.7 0 0 1 1.683-1.227 7 7 0 0 1 1.984-.652 15 15 0 0 1 2.25-.197l1.084-.015h123.322l1.096.015a15 15 0 0 1 2.23.195c.697.119 1.373.34 2.005.658a6.7 6.7 0 0 1 2.898 2.904c.312.623.529 1.29.642 1.978q.187 1.126.209 2.265c.003.34.003.705.003 1.068.01.45.01.879.01 1.31v25.115c0 .436 0 .861-.01 1.29 0 .39 0 .748-.005 1.116a15 15 0 0 1-.205 2.224 6.9 6.9 0 0 1-.648 2.004 6.6 6.6 0 0 1-1.218 1.663 6.5 6.5 0 0 1-1.68 1.227c-.63.319-1.305.541-2.001.66a15 15 0 0 1-2.243.195c-.352.008-.72.013-1.077.013l-1.301.002z"/><path fill="#000" d="M29.602 23.867a6.18 6.18 0 0 1 2.941-5.181 6.32 6.32 0 0 0-4.98-2.693c-2.096-.22-4.127 1.254-5.195 1.254-1.089 0-2.733-1.232-4.503-1.195a6.63 6.63 0 0 0-5.582 3.404c-2.413 4.178-.613 10.319 1.699 13.697 1.156 1.653 2.508 3.5 4.277 3.435 1.73-.072 2.377-1.103 4.467-1.103 2.07 0 2.676 1.103 4.48 1.062 1.858-.03 3.028-1.661 4.144-3.331a13.7 13.7 0 0 0 1.895-3.86 5.97 5.97 0 0 1-3.643-5.489M26.194 13.772a6.08 6.08 0 0 0 1.39-4.356 6.19 6.19 0 0 0-4.002 2.071 5.79 5.79 0 0 0-1.428 4.195 5.11 5.11 0 0 0 4.04-1.91M50.369 32.568h-5.68l-1.365 4.027H40.92l5.38-14.901h2.5l5.38 14.901H51.73zm-5.092-1.859h4.502l-2.22-6.537h-.062zM65.797 31.164c0 3.376-1.807 5.545-4.534 5.545a3.68 3.68 0 0 1-3.418-1.9h-.052v5.38h-2.23V25.732h2.159v1.807h.04a3.85 3.85 0 0 1 3.46-1.92c2.758 0 4.575 2.179 4.575 5.546m-2.292 0c0-2.2-1.137-3.646-2.871-3.646-1.704 0-2.85 1.477-2.85 3.646 0 2.189 1.146 3.655 2.85 3.655 1.734 0 2.871-1.436 2.871-3.655M77.756 31.164c0 3.376-1.808 5.545-4.535 5.545a3.68 3.68 0 0 1-3.418-1.9h-.052v5.38h-2.23V25.732h2.159v1.807h.04a3.86 3.86 0 0 1 3.46-1.92c2.758 0 4.576 2.179 4.576 5.546m-2.293 0c0-2.2-1.137-3.646-2.871-3.646-1.704 0-2.85 1.477-2.85 3.646 0 2.189 1.146 3.655 2.85 3.655 1.734 0 2.871-1.436 2.871-3.655M85.658 32.443c.165 1.478 1.6 2.448 3.562 2.448 1.88 0 3.232-.97 3.232-2.302 0-1.157-.815-1.85-2.747-2.324l-1.93-.465c-2.737-.661-4.008-1.941-4.008-4.018 0-2.57 2.241-4.337 5.422-4.337 3.15 0 5.308 1.766 5.38 4.337h-2.25c-.135-1.487-1.364-2.384-3.16-2.384s-3.027.908-3.027 2.23c0 1.053.785 1.673 2.706 2.148l1.642.403c3.057.723 4.326 1.951 4.326 4.13 0 2.789-2.219 4.535-5.751 4.535-3.305 0-5.536-1.705-5.68-4.4zM99.622 23.16v2.57h2.066v1.767h-2.066v5.99c0 .93.413 1.363 1.322 1.363a7 7 0 0 0 .733-.051v1.755q-.614.115-1.238.103c-2.2 0-3.058-.826-3.058-2.933v-6.227h-1.58V25.73h1.58V23.16zM102.883 31.164c0-3.419 2.013-5.567 5.153-5.567 3.15 0 5.154 2.148 5.154 5.567 0 3.427-1.994 5.566-5.154 5.566s-5.153-2.139-5.153-5.566m8.034 0c0-2.345-1.074-3.73-2.881-3.73s-2.882 1.395-2.882 3.73c0 2.354 1.075 3.727 2.882 3.727s2.881-1.373 2.881-3.727M115.028 25.73h2.127v1.85h.052a2.59 2.59 0 0 1 2.613-1.963q.387 0 .764.083v2.086a3.1 3.1 0 0 0-1.002-.135 2.24 2.24 0 0 0-2.225 1.544 2.25 2.25 0 0 0-.099.956v6.444h-2.23zM130.866 33.404c-.3 1.973-2.22 3.326-4.678 3.326-3.16 0-5.122-2.117-5.122-5.515 0-3.408 1.972-5.618 5.028-5.618 3.006 0 4.897 2.065 4.897 5.36v.763h-7.674v.135a2.84 2.84 0 0 0 .767 2.198 2.83 2.83 0 0 0 2.156.88 2.46 2.46 0 0 0 2.509-1.529zm-7.538-3.242h5.431a2.6 2.6 0 0 0-.73-1.961 2.6 2.6 0 0 0-1.935-.797 2.75 2.75 0 0 0-2.766 2.758M44.998 10.477a3.168 3.168 0 0 1 3.369 3.558c0 2.288-1.236 3.602-3.37 3.602h-2.586v-7.16zm-1.474 6.148h1.35a2.25 2.25 0 0 0 2.36-2.575 2.258 2.258 0 0 0-2.36-2.56h-1.35zM49.623 14.933a2.56 2.56 0 0 1 3.584-2.585 2.56 2.56 0 0 1 1.512 2.585 2.56 2.56 0 1 1-5.096 0m4 0c0-1.171-.526-1.856-1.45-1.856-.927 0-1.448.685-1.448 1.856 0 1.181.521 1.86 1.448 1.86.923 0 1.45-.684 1.45-1.86M61.494 17.637h-1.106l-1.117-3.98h-.084l-1.112 3.98h-1.096l-1.49-5.403h1.082l.968 4.123h.08l1.11-4.123h1.024l1.11 4.123h.085l.963-4.123h1.067zM64.23 12.234h1.027v.858h.08a1.62 1.62 0 0 1 1.612-.962 1.757 1.757 0 0 1 1.87 2.01v3.497h-1.066v-3.23c0-.868-.377-1.3-1.166-1.3a1.24 1.24 0 0 0-1.29 1.37v3.16H64.23zM70.519 10.124h1.066v7.513H70.52zM73.068 14.933a2.56 2.56 0 1 1 5.097 0 2.561 2.561 0 1 1-5.097 0m4 0c0-1.171-.527-1.856-1.45-1.856-.927 0-1.449.685-1.449 1.856 0 1.181.522 1.86 1.449 1.86.923 0 1.45-.684 1.45-1.86M79.287 16.11c0-.973.724-1.534 2.01-1.614l1.464-.084v-.467c0-.57-.378-.893-1.106-.893-.596 0-1.008.219-1.127.601h-1.032c.109-.928.982-1.524 2.208-1.524 1.354 0 2.119.675 2.119 1.816v3.692h-1.027v-.759h-.085a1.82 1.82 0 0 1-1.623.848 1.635 1.635 0 0 1-1.8-1.617m3.474-.462v-.452l-1.32.084c-.744.05-1.081.303-1.081.78 0 .486.421.769 1.002.769a1.274 1.274 0 0 0 1.399-1.181M85.224 14.933c0-1.707.878-2.789 2.243-2.789a1.78 1.78 0 0 1 1.657.948h.08v-2.968h1.066v7.513h-1.022v-.853h-.084a1.88 1.88 0 0 1-1.697.942c-1.375 0-2.243-1.081-2.243-2.793m1.102 0c0 1.146.54 1.836 1.443 1.836.9 0 1.455-.7 1.455-1.831 0-1.126-.562-1.836-1.455-1.836-.897 0-1.443.694-1.443 1.831M94.682 14.933a2.56 2.56 0 1 1 5.097 0 2.56 2.56 0 1 1-5.097 0m4 0c0-1.171-.526-1.856-1.45-1.856-.927 0-1.448.685-1.448 1.856 0 1.181.521 1.86 1.448 1.86.924 0 1.45-.684 1.45-1.86M101.21 12.234h1.026v.858h.08a1.62 1.62 0 0 1 1.612-.962 1.76 1.76 0 0 1 1.81 1.23c.079.252.099.519.061.78v3.497h-1.067v-3.23c0-.868-.377-1.3-1.166-1.3a1.24 1.24 0 0 0-1.29 1.37v3.16h-1.066zM111.824 10.888v1.37h1.171v.899h-1.171v2.778c0 .566.234.814.765.814q.203 0 .406-.025v.889a3.5 3.5 0 0 1-.58.054c-1.186 0-1.658-.417-1.658-1.459v-3.051h-.858v-.899h.858v-1.37zM114.452 10.124h1.057v2.978h.084a1.66 1.66 0 0 1 1.648-.968 1.78 1.78 0 0 1 1.794 1.241c.079.25.102.514.067.774v3.488h-1.068v-3.225c0-.863-.402-1.3-1.155-1.3a1.26 1.26 0 0 0-1.361 1.37v3.155h-1.066zM125.32 16.178a2.194 2.194 0 0 1-2.342 1.564 2.45 2.45 0 0 1-2.412-1.737c-.104-.34-.132-.7-.084-1.052a2.496 2.496 0 0 1 2.492-2.823c1.503 0 2.41 1.027 2.41 2.723v.373h-3.815v.06a1.42 1.42 0 0 0 .377 1.092 1.42 1.42 0 0 0 1.062.455 1.295 1.295 0 0 0 1.285-.655zm-3.751-1.741h2.729a1.31 1.31 0 0 0-.355-.994 1.3 1.3 0 0 0-.975-.406 1.383 1.383 0 0 0-1.399 1.4"/></g></g><defs><clipPath id="clip0_6024_4545"><path fill="#fff" d="M0 0h143.597v48H0z"/></clipPath><clipPath id="clip1_6024_4545"><path fill="#fff" d="M-.394 0h143.597v48H-.394z"/></clipPath></defs></svg>