<svg xmlns="http://www.w3.org/2000/svg" width="285" fill="none" viewBox="0 0 1788 200"><path fill="#000" d="M846.601 100.729v-3.476c0-28.239-21.505-49.961-49.744-49.961-29.542 0-52.785 23.895-52.785 54.089 0 32.149 23.677 55.392 52.785 55.392 21.288 0 38.883-9.341 47.138-24.329l-7.603-4.779c-6.951 12.816-21.723 20.419-39.318 20.419-24.546 0-43.879-19.333-43.879-46.921v-.434zm-49.961-45.4c21.939 0 39.317 16.075 40.403 37.58h-83.196c3.475-21.722 20.636-37.58 42.793-37.58m117.379-8.037c-16.944 0-33.018 7.82-40.186 20.202v-18.03h-9.558V154.6h9.558V77.92c7.385-13.25 22.808-21.722 38.883-21.722 21.07 0 35.407 15.423 35.407 38.232v60.17h9.341V93.56c0-27.804-17.596-46.268-43.445-46.268m154.201 2.172v18.03c-6.3-11.296-23.03-20.202-39.32-20.202-30.844 0-53.87 23.243-53.87 54.306 0 31.28 23.026 54.523 53.87 54.523 15.86 0 32.8-8.906 39.32-19.985v15.858c0 22.808-15.86 39.317-39.32 39.317-17.59 0-33.451-6.517-40.185-16.726l-5.648 5.865c8.038 11.947 26.283 19.55 46.053 19.55 29.11 0 48.66-19.985 48.66-48.006V49.464zm-38.23 97.968c-26.07 0-45.619-19.55-45.619-45.834s19.549-45.617 45.619-45.617c15.42 0 31.5 9.123 38.23 21.94v47.789c-6.95 12.599-23.03 21.722-38.23 21.722M1107.23 6.02c-4.78 0-8.47 3.692-8.47 8.037 0 4.779 3.69 8.254 8.47 8.254 4.13 0 8.25-3.475 8.25-8.254 0-4.345-4.12-8.037-8.25-8.037m-5 43.444V154.6h9.56V49.464zm83.87-2.172c-16.94 0-33.01 7.82-40.18 20.202v-18.03h-9.56V154.6h9.56V77.92c7.38-13.25 22.81-21.722 38.88-21.722 21.07 0 35.41 15.423 35.41 38.232v60.17h9.34V93.56c0-27.804-17.6-46.268-43.45-46.268m163.54 53.437v-3.476c0-28.239-21.5-49.961-49.74-49.961-29.54 0-52.78 23.895-52.78 54.089 0 32.149 23.67 55.392 52.78 55.392 21.29 0 38.88-9.341 47.14-24.329l-7.6-4.779c-6.96 12.816-21.73 20.419-39.32 20.419-24.55 0-43.88-19.333-43.88-46.921v-.434zm-49.96-45.4c21.94 0 39.32 16.075 40.41 37.58h-83.2c3.48-21.722 20.64-37.58 42.79-37.58m159.4 45.4v-3.476c0-28.239-21.51-49.961-49.75-49.961-29.54 0-52.78 23.895-52.78 54.089 0 32.149 23.68 55.392 52.78 55.392 21.29 0 38.89-9.341 47.14-24.329l-7.6-4.779c-6.95 12.816-21.72 20.419-39.32 20.419-24.54 0-43.88-19.333-43.88-46.921v-.434zm-49.96-45.4c21.94 0 39.31 16.075 40.4 37.58h-83.2c3.48-21.722 20.64-37.58 42.8-37.58m107.38-8.037c-11.51 0-23.89 8.037-30.19 20.419V49.464h-9.56V154.6h9.56V78.138c7.39-13.685 19.33-22.157 29.76-22.157 3.47 0 7.17.652 10.21 1.738l.65-8.906c-2.82-.87-6.52-1.521-10.43-1.521m28.44-41.272c-4.78 0-8.48 3.692-8.48 8.037 0 4.779 3.7 8.254 8.48 8.254 4.12 0 8.25-3.475 8.25-8.254 0-4.345-4.13-8.037-8.25-8.037m-5 43.444V154.6h9.56V49.464zm83.87-2.172c-16.94 0-33.02 7.82-40.19 20.202v-18.03h-9.55V154.6h9.55V77.92c7.39-13.25 22.81-21.722 38.89-21.722 21.07 0 35.4 15.423 35.4 38.232v60.17h9.35V93.56c0-27.804-17.6-46.268-43.45-46.268m154.2 2.172v18.03c-6.3-11.296-23.02-20.202-39.32-20.202-30.84 0-53.87 23.243-53.87 54.306 0 31.28 23.03 54.523 53.87 54.523 15.86 0 32.8-8.906 39.32-19.985v15.858c0 22.808-15.86 39.317-39.32 39.317-17.59 0-33.45-6.517-40.18-16.726l-5.65 5.865c8.04 11.947 26.28 19.55 46.05 19.55 29.11 0 48.66-19.985 48.66-48.006V49.464zm-38.23 97.968c-26.07 0-45.62-19.55-45.62-45.834s19.55-45.617 45.62-45.617c15.42 0 31.5 9.123 38.23 21.94v47.789c-6.95 12.599-23.02 21.722-38.23 21.722M225.801 141.06l8.816-20.476c9.527 7.11 22.182 10.806 34.695 10.806 9.243 0 15.072-3.554 15.072-8.958-.142-15.072-55.312-3.27-55.739-41.093-.142-19.196 16.921-33.984 41.094-33.984 14.361 0 28.722 3.555 38.96 11.66l-8.247 20.902c-9.385-5.972-21.044-10.238-32.135-10.238-7.537 0-12.513 3.555-12.513 8.105.142 14.788 55.739 6.683 56.308 42.8 0 19.622-16.637 33.415-40.525 33.415-17.49 0-33.557-4.124-45.786-12.939m338.276-27.87c-4.408 7.678-12.656 12.939-22.182 12.939-14.077 0-25.453-11.375-25.453-25.452s11.376-25.452 25.453-25.452c9.526 0 17.774 5.26 22.182 12.94l24.314-13.51c-9.1-16.21-26.589-27.3-46.496-27.3-29.434 0-53.322 23.888-53.322 53.322s23.888 53.322 53.322 53.322c20.049 0 37.396-10.949 46.496-27.301zM354.77 3.133h-30.43v148.875h30.43zm245.566 0v148.875h30.429V107.36l36.117 44.648h38.96l-45.928-53.037 42.516-49.483h-37.255l-34.41 41.093V3.133zM445.204 113.474c-4.408 7.252-13.508 12.655-23.746 12.655-14.077 0-25.453-11.375-25.453-25.452s11.376-25.452 25.453-25.452c10.238 0 19.338 5.687 23.746 13.081zm0-63.986v12.086c-4.977-8.39-17.348-14.22-30.287-14.22-26.732 0-47.777 23.605-47.777 53.181s21.045 53.464 47.777 53.464c12.939 0 25.31-5.83 30.287-14.219v12.086h30.429V49.488z"/><path fill="#E01E5A" d="M37.681 112.901c0 10.38-8.39 18.769-18.77 18.769S.143 123.281.143 112.901s8.39-18.77 18.77-18.77H37.68zm9.385 0c0-10.38 8.389-18.77 18.769-18.77s18.77 8.39 18.77 18.77v46.923c0 10.38-8.39 18.769-18.77 18.769s-18.77-8.389-18.77-18.769z"/><path fill="#36C5F0" d="M65.835 37.539c-10.38 0-18.77-8.39-18.77-18.77S55.456 0 65.836 0s18.77 8.39 18.77 18.77v18.769zm0 9.527c10.38 0 18.77 8.389 18.77 18.769s-8.39 18.77-18.77 18.77H18.769C8.39 84.604 0 76.214 0 65.834s8.39-18.77 18.77-18.77z"/><path fill="#2EB67D" d="M141.055 65.835c0-10.38 8.389-18.77 18.769-18.77s18.769 8.39 18.769 18.77-8.389 18.77-18.769 18.77h-18.769zm-9.385 0c0 10.38-8.389 18.77-18.769 18.77s-18.77-8.39-18.77-18.77V18.769C94.131 8.39 102.521 0 112.901 0s18.769 8.39 18.769 18.77z"/><path fill="#ECB22E" d="M112.901 141.055c10.38 0 18.769 8.389 18.769 18.769s-8.389 18.77-18.769 18.77-18.77-8.39-18.77-18.77v-18.769zm0-9.385c-10.38 0-18.77-8.389-18.77-18.769s8.39-18.77 18.77-18.77h47.065c10.38 0 18.77 8.39 18.77 18.77s-8.39 18.769-18.77 18.769z"/></svg>